# xmcd
#
# Track frame offsets:
#	150
#	16192
#	31160
#	46570
#	62555
#	79442
#	94922
#	112254
#	128165
#	143047
#	160105
#	178545
#	192637
#	208107
#	223795
#	241182
#	256480
#
# Disc length: 3622 seconds
#
# Revision: 15
# Processed by: cddbd v1.5.2PL0 Copyright (c) Steve Scherf et al.
# Submitted via: EasyCDDAExtractor 15.3.0.1
#
DISCID=ef0e2411
DTITLE=Britney Spears - Greatest Hits - My Prerogative - CD 1
DYEAR=2004
DGENRE=Pop
TTITLE0=My Prerogative (Previously Unreleased)
TTITLE1=Toxic
TTITLE2=I'm A Slave 4 U
TTITLE3=Oops!...I Did It Again
TTITLE4=Me Against The Music (Featuring Madonna)
TTITLE5=Stronger
TTITLE6=Everytime
TTITLE7=Baby One More Time
TTITLE8=(You Drive Me) Crazy (The Stop Remix!)
TTITLE9=Boys (The Co-Ed Remix) (Featuring Pharrell Williams)
TTITLE10=Sometimes
TTITLE11=Overprotected (The Darkchild Remix) (Radio Edit)
TTITLE12=Lucky
TTITLE13=Outrageous
TTITLE14=I'm Not A Girl, Not Yet A Woman
TTITLE15=I've Just Begun (Having My Fun) (Previously Unreleased)
TTITLE16=Do Somethin' (Previously Unreleased)
EXTD=
EXTT0=
EXTT1=
EXTT2=
EXTT3=
EXTT4=
EXTT5=
EXTT6=
EXTT7=
EXTT8=
EXTT9=
EXTT10=
EXTT11=
EXTT12=
EXTT13=
EXTT14=
EXTT15=
EXTT16=
PLAYORDER=
